<?xml version="1.0" encoding="UTF-8" standalone="no"?>
<!-- Created with Inkscape (http://www.inkscape.org/) -->

<svg
   width="159.36337mm"
   height="159.36339mm"
   viewBox="0 0 159.36337 159.36339"
   version="1.1"
   id="svg1"
   xmlns:inkscape="http://www.inkscape.org/namespaces/inkscape"
   xmlns:sodipodi="http://sodipodi.sourceforge.net/DTD/sodipodi-0.dtd"
   xmlns="http://www.w3.org/2000/svg"
   xmlns:svg="http://www.w3.org/2000/svg">
  <sodipodi:namedview
     id="namedview1"
     pagecolor="#ffffff"
     bordercolor="#000000"
     borderopacity="0.25"
     inkscape:showpageshadow="2"
     inkscape:pageopacity="0.0"
     inkscape:pagecheckerboard="0"
     inkscape:deskcolor="#d1d1d1"
     inkscape:document-units="mm" />
  <defs
     id="defs1" />
  <g
     inkscape:label="Layer 1"
     inkscape:groupmode="layer"
     id="layer1"
     transform="translate(-25.225602,-68.881857)">
    <g
       class="inbug"
       stroke="none"
       stroke-width="1"
       fill="none"
       fill-rule="evenodd"
       id="g2"
       inkscape:export-filename="..\..\..\Data\Web\buvaldo\src\app\about\linkedin.svg"
       inkscape:export-xdpi="96"
       inkscape:export-ydpi="96"
       transform="matrix(7.5887324,0,0,7.5887324,-452.86454,68.881855)">
      <path
         d="M 19.479,0 H 1.583 C 0.727,0 0,0.677 0,1.511 V 19.488 C 0,20.323 0.477,21 1.333,21 H 19.229 C 20.086,21 21,20.323 21,19.488 V 1.511 C 21,0.677 20.336,0 19.479,0"
         class="bug-text-color"
         transform="translate(63)"
         id="path1"
         style="display:inline" />
      <path
         d="M 82.479,0 H 64.583 C 63.727,0 63,0.677 63,1.511 V 19.488 C 63,20.323 63.477,21 64.333,21 H 82.229 C 83.086,21 84,20.323 84,19.488 V 1.511 C 84,0.677 83.336,0 82.479,0 Z M 71,8 h 2.827 v 1.441 h 0.031 C 74.289,8.664 75.562,7.875 77.136,7.875 80.157,7.875 81,9.479 81,12.45 V 18 H 78 V 12.997 C 78,11.667 77.469,10.5 76.227,10.5 74.719,10.5 74,11.521 74,13.197 V 18 h -3 z m -5,10 h 3 V 8 H 66 Z M 69.375,4.5 c 0,1.036 -0.839,1.875 -1.875,1.875 -1.036,0 -1.875,-0.839 -1.875,-1.875 0,-1.036 0.839,-1.875 1.875,-1.875 1.036,0 1.875,0.839 1.875,1.875 z"
         class="background"
         fill="currentColor"
         id="path2"
         style="display:inline;fill:#0a66c2;fill-opacity:1" />
    </g>
  </g>
</svg>
